<?xml version="1.0" encoding="utf-8"?>
<!-- Generator: Adobe Illustrator 25.2.1, SVG Export Plug-In . SVG Version: 6.00 Build 0)  -->
<svg version="1.1" id="Layer_1" xmlns="http://www.w3.org/2000/svg" xmlns:xlink="http://www.w3.org/1999/xlink" x="0px" y="0px"
	 viewBox="0 0 800 289" style="enable-background:new 0 0 800 289;" xml:space="preserve">
<style type="text/css">
	.st0{fill-rule:evenodd;clip-rule:evenodd;fill:#DDDDDD;}
	.st1{fill-rule:evenodd;clip-rule:evenodd;}
</style>
<g id="SVGRepo_bgCarrier">
</g>
<g id="SVGRepo_tracerCarrier">
</g>
<g id="SVGRepo_iconCarrier">
	<g>
		<g>
			<path class="st0" d="M765.2,67.4l33.5,0.2c0,0-62.2,84.3-67.3,91.2c-1.7,2.2-4.2,4.6-5.4,7.6c-3.2,7.5-6.5,23.9-6.5,23.9
				l-30.6,0.2c0,0,4.8-17.1,4.6-26.2c-0.2-8-4.2-15.9-6.5-23.9c-2.3-8.1-5.4-23.9-5.4-23.9h31.5l4.3,17.4L765.2,67.4"/>
			<path class="st0" d="M701.8,85.2c6.2,3.7,10,24.3,10,24.3s-32.3,0.5-49.9,0.5h-15.2l-18.5,80.3H600c0,0,17.6-87.3,21.7-103.1
				c1.3-5.1,9.2-4.2,22.5-4.2h21.2C679.1,82.9,695.1,81.1,701.8,85.2"/>
			<path class="st0" d="M570.4,124.3c0,0,0.9-5.2-3-11.1c-3.3-5.1-6.3-6.3-15-6.5c-24.5-0.8-24,17.4-24,17.4L570.4,124.3
				L570.4,124.3z M597,103.5c3.6,13-3.3,43.4-3.3,43.4s-35.8-0.6-55.4,0c-6.1,0.2-13.4-0.7-15.2,2.2c-2.6,4,0.9,10.1,3.9,12.7
				c3.4,3,10,3.3,12.4,3.6c15.9,2,49.2,0.5,49.2,0.5l-5.8,25.5c0,0-47,2.4-70.6-3.3c-4.6-1.1-9-3.3-11.9-6.5
				c-0.8-0.9-1.5-2.1-2.3-3.1c-0.6-0.8-2.4-3.5-3.2-5.6c-5.4-14.3,0.6-41.8,6.5-56.5c0.7-1.7,1.5-3.9,2.4-5.7c1.1-2.3,2.1-4.9,3-6.2
				c0.6-0.9,1.4-1.6,2-2.4c0.7-1.1,1.6-2.1,2.4-3c2.2-2.5,4.6-4.3,7.6-6.5c9.8-7.3,27.5-13,48.9-10.9c8,0.8,20.1,3.7,26.1,11.9
				C595.3,95.9,596.1,100.3,597,103.5L597,103.5L597,103.5z"/>
			<path class="st0" d="M467.5,82.8l27.4-0.2c0,0-15.3,72.4-23,107.6h-31.5c-22,0-41.6,2.7-49.9-13c-8.1-15.3-0.4-40.4,3.3-57.5
				c2.6-12.1,8-36.8,8-36.8l28.4-0.3c0,0-8,38.5-11.3,57.7c-1.2,6.9-3.7,13.4-1.1,18.5c2.4,4.8,5.9,5.2,16.3,5.4
				c3.3,0.1,14.1,0,14.1,0L467.5,82.8"/>
			<path class="st0" d="M339.4,134.9c2.9-10.2,7-21.2,6.5-30.4c-0.6-9.8-8.8-18.7-14.1-20.6c-16-5.6-31,2.2-36.9,8.7
				c-7.7,8.3-10.3,18.1-13,31.5c-2,10-3.7,20.5,0,28.2c6.5,13.7,26.9,10.7,48.9,10.9C334,154.4,336.7,144.6,339.4,134.9L339.4,134.9
				L339.4,134.9z M377.4,94.7c3.1,22.7-8.9,47.8-17.1,69.6c8.4,0.8,15.8-0.1,16.3,0.5c0.6,0.8-5.6,26-7.8,26.1
				c-6.7,0.2-28.8,0.4-38.1,0.4c-30.1,0-58.4,2-72.7-13c-5.8-6.1-9.9-16.5-10.9-23.9c-1.6-12.3,0.4-25.8,3.3-36.9
				c2.6-10.1,5.9-19.5,10.9-28.2c12.7-22.1,34.7-38.5,71.6-34.7c7.2,0.7,17.5,3.9,23.9,7.6c0.4,0.3,2,1.5,2.4,1.7
				C367.9,69.4,375.8,82.6,377.4,94.7L377.4,94.7L377.4,94.7z"/>
			<path class="st0" d="M244.1,82.9c-1.8,8.3-3.6,17.7-5.6,25.9h-30.4c2.4-9.1,4.2-18.1,6.5-26.1C224.3,82.8,233.4,82.9,244.1,82.9"
				/>
			<path class="st0" d="M207,116.4h29.3c-3.8,21.2-11.4,55.4-17.4,79.2c-3.7,14.9-6.2,25.8-16.3,33.7c-0.9,0.7-1.4,0.4-2.2,1.1
				c-1.9,1.8-10.4,3.8-15.2,4.3c-7.7,0.8-16.5,0.1-26-0.1c2.5-9.1,5.3-20,7.5-28.1c23.2,2.8,23.7-19.1,28.2-40.2
				C197.7,154.2,205.5,121.3,207,116.4"/>
			<g transform="translate(0.000000, 8.827586)">
				<path class="st1" d="M138.6,163l-0.6,1.6c-10.7,20.8-29.7,33.6-56.7,34.2c-12.6,0.3-24.7-3-32.6-6.5
					c-17-7.6-31.3-21.8-39.1-36.9C-1.6,133.7-3.6,103.5,19.7,81c0.4,0-2.8,4.9-2.5,4.9L16.6,88c-16.8,52.5,34.9,97.5,85.1,92.4
					C113.8,179.1,129.2,172.5,138.6,163"/>
				<path class="st1" d="M108.2,141.2c12.6,0.1,25.8-5.8,33.7-14.1c-6.8,17.4-26.6,28.5-53.2,25c-22.2-3-43.4-25.3-45.6-47.8
					C41.5,88,47.2,78.3,56.5,66.5c-3.3,6.2-4.5,10.9-4.8,14C48.2,115.7,80,141.1,108.2,141.2"/>
				<path class="st1" d="M140.6,97.4c-2,4.5-13.3,13-18.3,14.1c-19.8,4.2-32.4-5.2-39.1-15.8c-1-1.6-2.8-5.9-3.1-7.1
					c-2.6-8.7-1.4-22,6.3-28.8c-2.3,6.5-2.6,14.1-1.4,19c0.7,3,3,8.2,5.2,11.4c4.1,5.9,6.7,7.4,11.9,10.6c2.4,1.4,4.9,2.6,6,2.9
					C113.1,105.1,123.6,108.9,140.6,97.4"/>
			</g>
		</g>
	</g>
</g>
</svg>
