<?xml version="1.0" encoding="utf-8"?>
<!-- Generator: Adobe Illustrator 25.2.1, SVG Export Plug-In . SVG Version: 6.00 Build 0)  -->
<svg version="1.1" id="Layer_1" xmlns="http://www.w3.org/2000/svg" xmlns:xlink="http://www.w3.org/1999/xlink" x="0px" y="0px"
	 viewBox="0 0 797.1 340.2" style="enable-background:new 0 0 797.1 340.2;" xml:space="preserve">
<style type="text/css">
	.st0{fill-rule:evenodd;clip-rule:evenodd;fill:#DDDDDD;}
	.st1{fill-rule:evenodd;clip-rule:evenodd;}
</style>
<g id="Layer_2_1_">
	<g id="Layer_1-2">
		<g id="SVGRepo_iconCarrier">
			<path class="st0" d="M763.7,92.9l33.5,0.2c0,0-62.2,84.3-67.3,91.2c-1.7,2.2-4.2,4.6-5.4,7.6c-3.2,7.5-6.5,23.9-6.5,23.9
				l-30.6,0.1c0,0,4.8-17.1,4.6-26.2c-0.2-8-4.2-15.9-6.5-23.9s-5.4-23.9-5.4-23.9h31.5l4.3,17.4L763.7,92.9"/>
			<path class="st0" d="M700.3,110.7c6.2,3.7,10,24.3,10,24.3s-32.3,0.5-49.9,0.5h-15.2l-18.5,80.3h-28.3c0,0,17.5-87.3,21.7-103.1
				c1.3-5.1,9.2-4.2,22.5-4.2h21.2C677.5,108.4,693.5,106.6,700.3,110.7"/>
			<path class="st0" d="M568.9,149.8c0,0,0.9-5.2-3-11.1c-3.3-5.1-6.3-6.3-15-6.6c-24.5-0.8-24,17.4-24,17.4L568.9,149.8
				L568.9,149.8z M595.5,129c3.6,13-3.3,43.4-3.3,43.4s-35.8-0.6-55.4,0c-6.1,0.2-13.4-0.7-15.2,2.2c-2.5,4,0.9,10.1,3.9,12.7
				c3.4,3,10,3.3,12.4,3.6c15.9,2,49.2,0.5,49.2,0.5l-5.8,25.5c0,0-47,2.4-70.6-3.3c-4.5-1-8.7-3.2-11.9-6.5
				c-0.8-0.9-1.5-2.1-2.3-3.1c-1.3-1.8-2.3-3.6-3.2-5.6c-5.4-14.3,0.6-41.8,6.5-56.4c0.7-1.7,1.5-3.9,2.4-5.7c1.1-2.3,2.1-4.9,3-6.2
				c0.6-0.9,1.4-1.6,2-2.4c0.7-1,1.5-2,2.4-3c2.3-2.5,4.8-4.6,7.6-6.5c9.8-7.3,27.5-13,48.8-10.9c8,0.8,20.1,3.7,26,11.9
				C593.8,121.4,594.6,125.8,595.5,129L595.5,129z"/>
			<path class="st0" d="M466,108.3l27.4-0.2c0,0-15.2,72.3-23,107.6h-31.5c-22,0-41.6,2.7-49.9-13c-8.1-15.3-0.4-40.4,3.2-57.5
				c2.6-12.1,8-36.8,8-36.8l28.4-0.3c0,0-8,38.5-11.4,57.7c-1.2,6.9-3.7,13.4-1.1,18.4c2.4,4.9,5.9,5.2,16.3,5.4
				c3.3,0.1,14.1,0,14.1,0L466,108.3"/>
			<path class="st0" d="M337.9,160.4c2.9-10.2,7-21.2,6.5-30.4c-0.6-9.8-8.8-18.7-14.1-20.6c-16-5.7-31,2.2-36.9,8.7
				c-7.7,8.3-10.3,18.1-13,31.5c-2,10-3.7,20.5,0,28.2c6.5,13.7,26.9,10.7,48.9,10.9C332.5,179.9,335.2,170.1,337.9,160.4
				L337.9,160.4z M375.9,120.2c3.1,22.7-8.9,47.8-17.1,69.6c8.4,0.8,15.8-0.1,16.3,0.5c0.5,0.8-5.6,26.1-7.8,26.1
				c-6.7,0.2-28.8,0.4-38.1,0.4c-30.1,0-58.4,2-72.7-13c-5.8-6.1-9.9-16.5-10.9-23.9c-1.6-12.3,0.4-25.8,3.2-36.9
				c2.6-10,5.9-19.5,10.9-28.2c12.7-22.1,34.7-38.6,71.7-34.8c8.4,1,16.5,3.6,23.9,7.6c0.5,0.3,2,1.5,2.4,1.7
				C366.3,94.9,374.2,108.1,375.9,120.2L375.9,120.2z"/>
			<path class="st0" d="M242.5,108.4c-1.8,8.3-3.6,17.7-5.6,25.9h-30.4c2.4-9.1,4.2-18.1,6.5-26.1
				C222.8,108.3,231.8,108.4,242.5,108.4"/>
			<path class="st0" d="M205.5,141.9h29.3c-3.8,21.2-11.4,55.4-17.4,79.2c-3.7,14.9-6.2,25.8-16.3,33.7c-0.9,0.7-1.4,0.4-2.2,1.1
				c-1.9,1.8-10.4,3.8-15.2,4.4c-7.7,0.8-16.5,0.1-26-0.1c2.5-9.1,5.3-20,7.5-28.1c23.2,2.8,23.7-19.1,28.2-40.2
				C196.1,179.7,203.9,146.9,205.5,141.9"/>
			<path class="st1" d="M137.1,197.3l-0.6,1.6c-10.7,20.8-29.7,33.6-56.7,34.2c-11.2,0.1-22.3-2.1-32.6-6.5
				c-16.7-7.7-30.4-20.7-39.1-36.9C-3.1,168-5.1,137.9,18.1,115.3c0.4,0-2.8,4.9-2.5,4.9l-0.7,2.1c-16.8,52.5,34.9,97.5,85.1,92.4
				C112.2,213.4,127.6,206.8,137.1,197.3"/>
			<path class="st1" d="M106.7,175.6c12.6,0.1,25.8-5.8,33.7-14.1c-6.8,17.4-26.6,28.5-53.2,25c-22.2-3-43.4-25.3-45.6-47.8
				c-1.5-16.4,4.1-26.1,13.5-37.9c-3.2,6.2-4.5,11-4.8,14C46.7,150.1,78.4,175.4,106.7,175.6"/>
			<path class="st1" d="M139.1,131.7c-2,4.5-13.3,13-18.3,14.1C101,150,88.3,140.7,81.7,130c-1.2-2.2-2.3-4.6-3.1-7
				c-2.6-8.8-1.4-22,6.3-28.8c-2.3,6.5-2.7,14.1-1.4,19c1.2,4,2.9,7.9,5.2,11.4c4.1,6,6.7,7.4,11.9,10.6c1.9,1.2,3.9,2.1,6,2.9
				C111.6,139.4,122.1,143.3,139.1,131.7"/>
		</g>
	</g>
</g>
</svg>
